<svg width="606" height="634" viewBox="0 0 606 634" fill="none" xmlns="http://www.w3.org/2000/svg">
<g clip-path="url(#clip0_55367_22762)">
<path d="M564.48 278.87C544.92 248.34 518.95 226 506.38 190.97C497.31 165.7 495.14 139.85 483.81 115.04C460.35 63.6496 421.74 27.4495 367.45 10.3995C258.15 -23.9305 137.56 29.1495 91.3798 133.8C79.8998 159.81 77.7498 187.68 69.6998 214.62C58.1698 253.23 34.3098 286.16 19.3798 323.3C-11.2802 399.57 -8.93019 482.36 50.9498 543.4C53.1798 545.68 65.4998 557.4 67.4598 557.64C67.6198 557.66 67.7998 557.64 67.9598 557.64C68.9798 559.51 70.8298 561.01 72.4998 562.35C104.09 587.69 150.39 604.42 190.26 610.09C204.92 612.17 220.11 612.18 234.59 615.26C243.45 617.14 252.09 620.68 260.84 623.01C364.54 650.57 476.94 623.94 550.97 545.41C623.09 468.91 619.17 364.28 564.47 278.89L564.48 278.87ZM538.45 512.87C484.45 578.7 392.81 610.71 308.75 601.09C276.27 597.37 245.68 584.22 213.2 580.14C184.71 576.55 163.17 574.07 136.11 562.73C127.77 559.23 118.09 552.7 110.47 549.86C109.68 549.56 108.09 549.72 107.96 549.63C107.88 549.58 107.84 548.27 107.34 547.75C105.44 545.8 96.8698 541.24 93.8098 539.03C36.1298 497.37 21.5198 442.78 36.0998 374.01C47.9298 318.24 84.7998 274.37 100.8 220.21C107.93 196.09 110.39 170.62 119.82 147.23C177.54 3.96954 404.48 -15.3504 459.69 139.16C467.79 161.84 470.17 185.15 479.37 207.98C493.68 243.5 518.54 264.56 538.68 295.67C581.68 362.12 590.95 448.87 538.46 512.87H538.45Z" fill="#A26110"/>
<path d="M569.221 359.139C569.541 359.309 569.541 359.469 569.221 359.639V359.139Z" fill="#A26110"/>
<path d="M197.88 102.749C203.56 102.169 208.46 106.369 210.23 111.619C215.08 126.019 202.34 154.329 185.72 155.619C179.06 156.139 174.96 149.509 173.69 143.659C170.63 129.549 182.07 104.359 197.89 102.739L197.88 102.749Z" fill="#FBBC02"/>
<path d="M538.68 295.67C518.55 264.55 493.69 243.49 479.37 207.98C470.17 185.15 467.8 161.84 459.69 139.16C404.48 -15.3499 177.54 3.97013 119.82 147.24C110.39 170.64 107.93 196.1 100.8 220.22C84.7901 274.38 47.9301 318.25 36.1001 374.02C21.5201 442.79 36.1201 497.39 93.8101 539.04C96.8701 541.25 105.45 545.81 107.34 547.76C107.85 548.28 107.88 549.58 107.96 549.64C108.09 549.72 109.68 549.57 110.47 549.87C118.09 552.71 127.77 559.24 136.11 562.74C163.17 574.08 184.71 576.57 213.2 580.15C245.68 584.24 276.27 597.38 308.75 601.1C392.81 610.72 484.45 578.71 538.45 512.88C590.94 448.88 581.67 362.13 538.67 295.68L538.68 295.67ZM185.71 155.63C179.05 156.15 174.95 149.52 173.68 143.67C170.62 129.56 182.06 104.37 197.88 102.75C203.56 102.17 208.46 106.37 210.23 111.62C215.08 126.02 202.34 154.33 185.72 155.62L185.71 155.63ZM229.19 313.15C195.44 313.6 193.5 236.12 228.35 235.77C262.02 235.43 263.56 312.69 229.19 313.15ZM384.47 378.39C357.55 402.23 310.68 407.66 279.8 388.54C269.59 382.22 245.75 360.26 243.99 348.35C242.12 335.69 255.94 327.53 266.42 333.92C271.58 337.07 272.25 342.4 275.06 347.28C292.95 378.32 349.38 381.92 369.88 352.29C375.45 344.24 374.94 330.94 387.36 329.76C395.07 329.03 402.22 335.24 402.96 342.88C404.15 355.22 393.3 370.56 384.47 378.38V378.39ZM413.74 314.65C378.93 316.51 377.35 238.24 411.3 237.32C427.64 236.88 436.96 258.15 437.99 271.87C439.16 287.39 433.03 313.62 413.74 314.65Z" fill="#FDCB20"/>
<path d="M387.36 329.769C374.94 330.949 375.44 344.249 369.88 352.299C349.39 381.929 292.95 378.329 275.06 347.289C272.25 342.409 271.59 337.079 266.42 333.929C255.94 327.539 242.13 335.699 243.99 348.359C245.75 360.269 269.59 382.229 279.8 388.549C310.68 407.669 357.54 402.239 384.47 378.399C393.3 370.579 404.14 355.239 402.96 342.899C402.23 335.259 395.07 329.049 387.36 329.779V329.769Z" fill="#A26110"/>
<path d="M228.36 235.769C193.51 236.119 195.45 313.599 229.2 313.149C263.57 312.689 262.03 235.439 228.36 235.769Z" fill="#A26110"/>
<path d="M437.98 271.869C436.95 258.159 427.63 236.879 411.29 237.319C377.34 238.239 378.92 316.509 413.73 314.649C433.02 313.619 439.14 287.379 437.98 271.869Z" fill="#A26110"/>
<path d="M423.485 157.57C430.898 155.847 434.868 145.672 432.352 134.843C429.836 124.014 421.787 116.632 414.374 118.354C406.961 120.076 402.991 130.251 405.507 141.08C408.023 151.909 416.072 159.292 423.485 157.57Z" fill="#FBBC02"/>
<path d="M534.248 352.582C540.682 351.087 543.765 340.696 541.134 329.372C538.503 318.048 531.154 310.08 524.72 311.575C518.286 313.069 515.203 323.461 517.834 334.785C520.465 346.109 527.814 354.077 534.248 352.582Z" fill="#FBBC02"/>
<path d="M501.686 474.69C505.505 465.914 503.043 456.381 496.186 453.396C489.33 450.412 480.675 455.107 476.855 463.883C473.036 472.659 475.498 482.193 482.355 485.177C489.211 488.161 497.866 483.466 501.686 474.69Z" fill="#FBBC02"/>
<path d="M356.396 544.247C360.638 534.234 358.248 523.648 351.057 520.601C343.867 517.555 334.599 523.203 330.357 533.216C326.115 543.229 328.505 553.815 335.696 556.862C342.886 559.908 352.154 554.26 356.396 544.247Z" fill="#FBBC02"/>
<path d="M169.761 474.059C175.85 468.385 173.195 455.639 163.831 445.59C154.467 435.542 141.94 431.995 135.851 437.669C129.762 443.344 132.417 456.089 141.781 466.138C151.145 476.187 163.672 479.733 169.761 474.059Z" fill="#FBBC02"/>
<path d="M131.357 337.481C133.618 325.459 129.638 314.62 122.468 313.272C115.298 311.923 107.653 320.576 105.392 332.599C103.132 344.621 107.111 355.46 114.281 356.809C121.451 358.157 129.096 349.504 131.357 337.481Z" fill="#FBBC02"/>
</g>
<defs>
<clipPath id="clip0_55367_22762">
<rect width="605.35" height="633.55" fill="white"/>
</clipPath>
</defs>
</svg>
