<svg width="279" height="365" viewBox="0 0 279 365" fill="none" xmlns="http://www.w3.org/2000/svg">
<rect x="97" y="0.5" width="68" height="34" rx="17" fill="#252525"/>
<rect x="97" y="0.5" width="68" height="34" rx="17" stroke="#313030"/>
<path d="M116.669 17.0312C116.575 16.4375 116.044 16.0469 115.278 16.0469C114.528 16.0469 113.95 16.4062 113.966 16.9219C113.95 17.2969 114.263 17.5938 115.059 17.7656L116.575 18.0781C118.216 18.4219 119.013 19.1562 119.028 20.375C119.013 22.0469 117.513 23.1719 115.263 23.1719C112.966 23.1719 111.622 22.1406 111.434 20.4844H113.763C113.872 21.1562 114.419 21.5 115.263 21.5C116.106 21.5 116.669 21.1562 116.669 20.6094C116.669 20.1719 116.309 19.9062 115.513 19.7344L114.106 19.4531C112.497 19.1406 111.653 18.2969 111.669 17.0469C111.653 15.4219 113.059 14.4062 115.247 14.4062C117.388 14.4062 118.716 15.4219 118.841 17.0312H116.669ZM124.439 14.5156V16.25H122.845V20.3906C122.845 21.0625 123.173 21.2344 123.642 21.25C123.876 21.25 124.283 21.2344 124.564 21.2031V23.0312C124.314 23.0781 123.908 23.1094 123.329 23.1094C121.658 23.1094 120.517 22.3594 120.533 20.7188V16.25H119.361V14.5156H120.533V12.4844H122.845V14.5156H124.439ZM129.162 23.1719C126.568 23.1719 124.974 21.4844 124.974 18.7969C124.974 16.1719 126.584 14.4062 129.068 14.4062C131.303 14.4062 133.053 15.8125 133.053 18.7031V19.3594H127.256C127.256 20.6406 128.021 21.4375 129.209 21.4375C129.99 21.4375 130.553 21.0938 130.787 20.5781H132.99C132.662 22.1406 131.256 23.1719 129.162 23.1719ZM127.256 17.9062H130.865C130.865 16.875 130.146 16.1406 129.115 16.1406C128.053 16.1406 127.295 16.9297 127.256 17.9062ZM134.026 26.1875V14.5156H136.307V15.9375H136.401C136.713 15.25 137.401 14.4062 138.823 14.4062C140.698 14.4062 142.26 15.8594 142.26 18.7656C142.26 21.5938 140.76 23.1406 138.823 23.1406C137.432 23.1406 136.729 22.3438 136.401 21.6406H136.338V26.1875H134.026ZM136.291 18.75C136.291 20.2812 136.948 21.2969 138.088 21.2969C139.276 21.2969 139.901 20.25 139.901 18.75C139.901 17.2656 139.276 16.25 138.088 16.25C136.932 16.25 136.291 17.2188 136.291 18.75ZM151.347 11.6875V23H148.987V13.9219H148.925L146.331 15.5469V13.4688L149.128 11.6875H151.347Z" fill="#E6E6E6"/>
<path d="M57.1575 49.6211V65.6172H55.0129V57.6016H53.6594V64.8789H51.5325V60.291L50.2668 61.9785C48.7815 61.1963 47.8235 59.8691 47.261 58.2168C46.7248 60.1152 45.7756 61.6533 44.2551 62.5586L42.8664 60.8359C45.2922 59.4648 46.1184 56.6348 46.1184 53.5762V53.0664H43.4114V51.2734H50.7414V53.0664H48.2981V53.5762C48.2981 56.3623 49.1243 59.0166 51.5325 60.2559V49.8496H53.6594V55.7734H55.0129V49.6211H57.1575ZM71.6116 49.6211V58.2168H69.3616V49.6211H71.6116ZM63.1214 58.9199V60.4141H69.3792V58.9199H71.6116V65.4414H60.9065V58.9199H63.1214ZM63.1214 63.6309H69.3792V62.1543H63.1214V63.6309ZM62.8401 50.2891C65.3362 50.2715 67.2171 51.8359 67.2171 54.0859C67.2171 56.2656 65.3362 57.8301 62.8401 57.8301C60.344 57.8301 58.4632 56.2656 58.4632 54.0859C58.4632 51.8359 60.344 50.2715 62.8401 50.2891ZM62.8401 52.1523C61.5569 52.1523 60.6429 52.873 60.6604 54.0859C60.6429 55.2812 61.5569 55.9844 62.8401 55.9844C64.0882 55.9844 65.0022 55.2812 65.0022 54.0859C65.0022 52.873 64.0882 52.1523 62.8401 52.1523ZM86.4173 51.0098V52.5215C86.4173 54.5254 86.4173 56.7754 85.7669 60.168L83.5169 59.9395C84.1234 56.916 84.1497 54.666 84.1673 52.7852H74.7454V51.0098H86.4173ZM87.8236 61.8379V63.666H73.2337V61.8379H78.4544V56.3359H80.6868V61.8379H87.8236ZM104.55 49.6211V52.7148H106.712V54.5605H104.55V57.6191H102.3V49.6211H104.55ZM104.55 58.252V62.6113H96.1654V63.6836H105.007V65.4414H93.9682V60.9941H102.318V59.9746H93.933V58.252H104.55ZM96.2709 50.0957C98.7318 50.1133 100.56 51.5898 100.56 53.7168C100.56 55.8262 98.7318 57.3379 96.2709 57.3379C93.81 57.3379 91.9643 55.8262 91.9643 53.7168C91.9643 51.5898 93.81 50.1133 96.2709 50.0957ZM96.2709 51.9238C95.0404 51.9238 94.144 52.5918 94.1615 53.7168C94.144 54.8594 95.0404 55.5625 96.2709 55.5625C97.5014 55.5625 98.3803 54.8594 98.3803 53.7168C98.3803 52.5918 97.5014 51.9238 96.2709 51.9238ZM120.27 49.6387V59.1133H118.02V49.6387H120.27ZM115.12 50.5527V55.3516H109.916V56.7402C112.588 56.7314 114.469 56.6523 116.631 56.3008L116.913 58.0938C114.452 58.4805 112.307 58.5684 109.125 58.5684H107.719V53.6465H112.887V52.3105H107.702V50.5527H115.12ZM120.27 59.8164V65.4414H109.547V59.8164H120.27ZM111.762 61.5918V63.6484H118.073V61.5918H111.762ZM129.187 49.8496C132.861 49.8496 134.988 50.8164 135.005 52.5742C134.988 54.3496 132.861 55.3164 129.187 55.3164C125.496 55.3164 123.351 54.3496 123.351 52.5742C123.351 50.8164 125.496 49.8496 129.187 49.8496ZM129.187 51.4844C126.832 51.4844 125.689 51.8711 125.707 52.5742C125.689 53.3652 126.832 53.6641 129.187 53.6641C131.56 53.6641 132.685 53.3652 132.685 52.5742C132.685 51.8711 131.56 51.4844 129.187 51.4844ZM136.482 56.0723V57.8477H121.892V56.0723H136.482ZM134.707 58.7793V62.8574H125.794V63.8242H135.128V65.5117H123.597V61.293H132.492V60.4141H123.58V58.7793H134.707ZM153.209 49.6211V53.2598H155.371V55.1055H153.209V58.9551H150.959V49.6211H153.209ZM143.224 50.5527V52.5918H146.494V50.5527H148.744V58.1641H140.992V50.5527H143.224ZM143.224 56.4062H146.494V54.332H143.224V56.4062ZM153.296 59.6758V61.4512H144.982V63.6484H153.595V65.4062H142.75V59.6758H153.296ZM162.829 49.8496C166.503 49.8496 168.629 50.8164 168.647 52.5742C168.629 54.3496 166.503 55.3164 162.829 55.3164C159.137 55.3164 156.993 54.3496 156.993 52.5742C156.993 50.8164 159.137 49.8496 162.829 49.8496ZM162.829 51.4844C160.473 51.4844 159.331 51.8711 159.348 52.5742C159.331 53.3652 160.473 53.6641 162.829 53.6641C165.202 53.6641 166.327 53.3652 166.327 52.5742C166.327 51.8711 165.202 51.4844 162.829 51.4844ZM170.124 56.0723V57.8477H155.534V56.0723H170.124ZM168.348 58.7793V62.8574H159.436V63.8242H168.77V65.5117H157.239V61.293H166.133V60.4141H157.221V58.7793H168.348ZM179.995 52.1348C179.995 54.0684 181.12 55.9316 183.651 56.7227L182.456 58.4629C180.759 57.9004 179.573 56.8105 178.887 55.4043C178.193 57.0215 176.954 58.2871 175.126 58.9023L173.913 57.1445C176.585 56.248 177.727 54.1211 177.745 51.9238V50.4648H179.995V52.1348ZM186.85 49.6211V53.3652H189.012V55.2285H186.85V59.1133H184.6V49.6211H186.85ZM181.612 59.4297C184.917 59.4297 187.008 60.5723 187.008 62.5234C187.008 64.4922 184.917 65.6172 181.612 65.6172C178.237 65.6172 176.128 64.4922 176.128 62.5234C176.128 60.5723 178.237 59.4297 181.612 59.4297ZM181.612 61.1875C179.503 61.1875 178.36 61.6445 178.378 62.5234C178.36 63.4375 179.503 63.8594 181.612 63.8594C183.686 63.8594 184.794 63.4375 184.794 62.5234C184.794 61.6445 183.686 61.1875 181.612 61.1875ZM203.765 57.1094V58.8848H197.578V60.2559H202.025V65.4414H190.863V60.2559H195.345V58.8848H189.176V57.1094H203.765ZM202.465 50.0605V51.8535H200.373V54.2969H202.359V56.0898H190.564V54.2969H192.533V51.8535H190.459V50.0605H202.465ZM193.078 61.9961V63.6484H199.828V61.9961H193.078ZM194.783 54.2969H198.123V51.8535H194.783V54.2969ZM211.487 49.8496C215.161 49.8496 217.288 50.8164 217.305 52.5742C217.288 54.3496 215.161 55.3164 211.487 55.3164C207.796 55.3164 205.651 54.3496 205.651 52.5742C205.651 50.8164 207.796 49.8496 211.487 49.8496ZM211.487 51.4844C209.132 51.4844 207.989 51.8711 208.007 52.5742C207.989 53.3652 209.132 53.6641 211.487 53.6641C213.86 53.6641 214.985 53.3652 214.985 52.5742C214.985 51.8711 213.86 51.4844 211.487 51.4844ZM218.782 56.0723V57.8477H204.192V56.0723H218.782ZM217.007 58.7793V62.8574H208.094V63.8242H217.428V65.5117H205.897V61.293H214.792V60.4141H205.88V58.7793H217.007ZM98.2899 86.9336V88.7617H83.6649V86.9336H98.2899ZM96.62 84.0332V85.8086H85.4403V80.043H96.5321V81.8535H87.6727V84.0332H96.62ZM90.9423 89.7285C94.4052 89.7285 96.4969 90.7832 96.5145 92.6641C96.4969 94.5625 94.4052 95.6172 90.9423 95.6172C87.4442 95.6172 85.3348 94.5625 85.3348 92.6641C85.3348 90.7832 87.4442 89.7285 90.9423 89.7285ZM90.9423 91.4336C88.7274 91.4336 87.6024 91.8555 87.62 92.6641C87.6024 93.5078 88.7274 93.9121 90.9423 93.9121C93.1044 93.9121 94.2469 93.5078 94.2645 92.6641C94.2469 91.8555 93.1044 91.4336 90.9423 91.4336ZM113.307 88.1992V89.9922H98.664V88.1992H104.869V87.0391H100.492V82.6445H109.281V81.6602H100.457V79.9199H111.531V84.2617H102.725V85.3164H111.83V87.0391H107.101V88.1992H113.307ZM111.619 90.9062V95.5469H109.351V92.6641H100.299V90.9062H111.619ZM121.415 82.0645V83.8398H113.681V82.0645H116.458V80.0605H118.673V82.0645H121.415ZM117.583 84.5605C119.622 84.5605 121.081 86.1426 121.099 88.3574C121.081 90.5898 119.622 92.1719 117.583 92.1719C115.544 92.1719 114.05 90.5898 114.05 88.3574C114.05 86.1426 115.544 84.5605 117.583 84.5605ZM117.583 86.4238C116.651 86.4238 116.019 87.1445 116.019 88.3574C116.019 89.5703 116.651 90.2734 117.583 90.2734C118.479 90.2734 119.112 89.5703 119.13 88.3574C119.112 87.1445 118.479 86.4238 117.583 86.4238ZM127.532 79.6211V95.6172H125.405V87.918H124.104V94.9316H122.013V79.9375H124.104V86.125H125.405V79.6211H127.532ZM143.357 91.9258V93.7539H128.715V91.9258H134.885V88.9727H130.262V80.6406H132.512V83.1191H139.49V80.6406H141.723V88.9727H137.117V91.9258H143.357ZM132.512 87.1797H139.49V84.9121H132.512V87.1797ZM148.864 83.6465C148.864 86.2305 149.585 88.9023 151.765 90.3086L150.552 92.0488C149.172 91.2139 148.293 89.8428 147.792 88.1992C147.212 90.0098 146.254 91.5215 144.804 92.4004L143.433 90.748C145.806 89.2715 146.685 86.459 146.685 83.752V80.9922H148.864V83.6465ZM157.601 79.6211V95.6172H155.456V79.6211H157.601ZM154.243 79.8496V94.8789H152.151V86.8457H150.077V85.0176H152.151V79.8496H154.243ZM173.391 91.9082V93.7539H158.748V91.9082H162.018V87.9883C160.778 87.25 160.031 86.1162 160.031 84.7012C160.031 82.1172 162.563 80.3945 166.043 80.3945C169.506 80.3945 172.055 82.1172 172.072 84.7012C172.064 86.0811 171.334 87.2061 170.139 87.9531V91.9082H173.391ZM166.043 82.1699C163.758 82.1699 162.246 83.084 162.246 84.7012C162.246 86.2656 163.758 87.2324 166.043 87.2324C168.311 87.2324 169.84 86.2656 169.857 84.7012C169.84 83.084 168.311 82.1699 166.043 82.1699ZM164.232 91.9082H167.871V88.7969C167.3 88.9111 166.685 88.9727 166.043 88.9727C165.401 88.9727 164.795 88.9199 164.232 88.7969V91.9082ZM177.403 81.2734L177.175 90.1855H174.925L174.696 81.2734H177.403ZM176.068 94.1582C175.241 94.1582 174.573 93.4902 174.591 92.6816C174.573 91.873 175.241 91.2227 176.068 91.2227C176.841 91.2227 177.526 91.873 177.526 92.6816C177.526 93.4902 176.841 94.1582 176.068 94.1582Z" fill="white"/>
<rect x="0.5" y="123.5" width="261" height="148" rx="11.5" stroke="#363636"/>
<rect x="39.5" y="170.5" width="184" height="48" rx="3.5" fill="#363636"/>
<rect x="39.5" y="170.5" width="184" height="48" rx="3.5" stroke="white"/>
<path d="M74.2314 200.258H72.5566V187.803H74.2314V200.258ZM73.124 194.03H71.0254V192.615H73.124V194.03ZM71.4971 199.684H69.8496V187.994H71.4971V199.684ZM66.9512 190.886C66.9512 191.97 66.8623 192.959 66.6846 193.853C66.5068 194.746 66.2129 195.541 65.8027 196.238C65.3971 196.931 64.8594 197.478 64.1895 197.879L63.1162 196.539C63.7178 196.193 64.2054 195.735 64.5791 195.165C64.9574 194.591 65.2262 193.946 65.3857 193.23C65.5498 192.515 65.6318 191.733 65.6318 190.886V189.73H66.9512V190.886ZM67.3271 190.886C67.3271 191.66 67.4092 192.381 67.5732 193.046C67.7419 193.707 68.0153 194.304 68.3936 194.837C68.7718 195.366 69.2617 195.787 69.8633 196.102L68.8584 197.428C68.1794 197.068 67.6257 196.562 67.1973 195.91C66.7734 195.254 66.4658 194.504 66.2744 193.661C66.0876 192.813 65.9941 191.888 65.9941 190.886V189.73H67.3271V190.886ZM69.2344 190.496H63.54V189.102H69.2344V190.496ZM85.5999 194.509H83.8567V187.803H85.5999V194.509ZM79.0032 196.204H83.8636V195.049H85.5999V200.121H77.2874V195.049H79.0032V196.204ZM83.8636 198.713V197.558H79.0032V198.713H83.8636ZM78.7845 188.329C79.427 188.325 80.0058 188.448 80.5208 188.698C81.0403 188.944 81.4482 189.293 81.7444 189.744C82.0406 190.195 82.1888 190.708 82.1888 191.282C82.1888 191.834 82.0406 192.333 81.7444 192.779C81.4482 193.221 81.0403 193.568 80.5208 193.818C80.0058 194.069 79.427 194.197 78.7845 194.201C78.1419 194.197 77.5608 194.069 77.0413 193.818C76.5263 193.568 76.1207 193.221 75.8245 192.779C75.5283 192.333 75.3802 191.834 75.3802 191.282C75.3802 190.708 75.5283 190.195 75.8245 189.744C76.1207 189.293 76.5263 188.944 77.0413 188.698C77.5608 188.448 78.1419 188.325 78.7845 188.329ZM78.7845 189.785C78.4518 189.781 78.1555 189.84 77.8958 189.963C77.6406 190.086 77.4401 190.259 77.2942 190.482C77.1529 190.706 77.0823 190.972 77.0823 191.282C77.0823 191.583 77.1529 191.845 77.2942 192.068C77.4401 192.292 77.6406 192.465 77.8958 192.588C78.1555 192.706 78.4518 192.768 78.7845 192.772C79.1126 192.768 79.402 192.706 79.6526 192.588C79.9078 192.465 80.1061 192.292 80.2473 192.068C80.3886 191.845 80.4593 191.583 80.4593 191.282C80.4593 190.972 80.3863 190.706 80.2405 190.482C80.0992 190.259 79.9033 190.086 79.6526 189.963C79.402 189.84 79.1126 189.781 78.7845 189.785ZM96.148 190.271H88.1773V188.89H96.148V190.271ZM98.3629 198.733H87.0152V197.318H98.3629V198.733ZM92.8052 198.043H91.0757V193.039H92.8052V198.043ZM97.2554 190.072C97.2554 190.801 97.2463 191.424 97.2281 191.938C97.2099 192.449 97.1666 193.055 97.0982 193.757C97.0298 194.454 96.9205 195.211 96.7701 196.026L94.9996 195.842C95.1591 195.081 95.2753 194.363 95.3482 193.688C95.4211 193.009 95.4644 192.41 95.4781 191.891C95.4963 191.367 95.5054 190.76 95.5054 190.072V188.89H97.2554V190.072ZM111.659 194.03H109.916V187.803H111.659V194.03ZM113.341 191.658H110.935V190.223H113.341V191.658ZM111.659 197.92H105.145V199.431H103.429V196.655H109.923V195.869H103.408V194.529H111.659V197.92ZM112.022 200.121H103.429V198.747H112.022V200.121ZM105.227 188.186C105.856 188.186 106.423 188.306 106.929 188.548C107.439 188.785 107.838 189.118 108.125 189.546C108.417 189.974 108.563 190.46 108.563 191.002C108.563 191.54 108.417 192.025 108.125 192.458C107.838 192.886 107.439 193.221 106.929 193.463C106.423 193.7 105.856 193.818 105.227 193.818C104.598 193.818 104.028 193.698 103.518 193.456C103.007 193.215 102.604 192.88 102.308 192.451C102.016 192.023 101.87 191.54 101.87 191.002C101.87 190.46 102.016 189.974 102.308 189.546C102.599 189.118 103 188.785 103.511 188.548C104.021 188.306 104.593 188.186 105.227 188.186ZM105.227 189.607C104.908 189.603 104.623 189.658 104.372 189.771C104.122 189.885 103.926 190.047 103.784 190.257C103.643 190.466 103.572 190.715 103.572 191.002C103.572 191.289 103.643 191.542 103.784 191.761C103.926 191.975 104.122 192.141 104.372 192.26C104.623 192.378 104.908 192.438 105.227 192.438C105.546 192.438 105.828 192.378 106.074 192.26C106.32 192.141 106.514 191.975 106.655 191.761C106.797 191.542 106.867 191.289 106.867 191.002C106.867 190.715 106.797 190.466 106.655 190.257C106.514 190.047 106.32 189.885 106.074 189.771C105.828 189.658 105.546 189.603 105.227 189.607ZM124.019 195.206H122.276V187.83H124.019V195.206ZM115.358 193.347C116.716 193.351 117.814 193.333 118.653 193.292C119.491 193.246 120.339 193.153 121.196 193.012L121.408 194.413C120.505 194.55 119.605 194.646 118.707 194.7C117.81 194.75 116.693 194.775 115.358 194.775H114.264V193.347H115.358ZM120.013 192.273H115.98V194.222H114.264V190.94H118.29V189.908H114.25V188.541H120.013V192.273ZM124.019 200.121H115.686V195.746H124.019V200.121ZM117.402 198.72H122.31V197.134H117.402V198.72ZM138.799 196.915H137.056V187.83H138.799V196.915ZM139.141 200.046H130.466V198.638H139.141V200.046ZM132.229 199.383H130.466V196.026H132.229V199.383ZM132.797 189.71C132.797 190.549 132.662 191.332 132.394 192.062C132.129 192.791 131.73 193.431 131.197 193.982C130.669 194.534 130.017 194.944 129.242 195.213L128.34 193.839C129.014 193.616 129.577 193.29 130.028 192.861C130.479 192.428 130.812 191.941 131.026 191.398C131.241 190.856 131.348 190.293 131.348 189.71V188.514H132.797V189.71ZM133.159 189.71C133.159 190.275 133.262 190.815 133.467 191.33C133.672 191.84 133.993 192.296 134.431 192.697C134.873 193.098 135.42 193.406 136.071 193.62L135.183 195.001C134.412 194.741 133.768 194.354 133.248 193.839C132.733 193.319 132.346 192.709 132.086 192.007C131.826 191.3 131.696 190.535 131.696 189.71V188.514H133.159V189.71ZM144.452 190.455C144.452 191.193 144.323 191.884 144.063 192.526C143.803 193.169 143.409 193.727 142.88 194.201C142.356 194.671 141.709 195.017 140.939 195.24L140.125 193.887C140.772 193.695 141.315 193.422 141.752 193.066C142.194 192.711 142.522 192.31 142.737 191.863C142.951 191.412 143.058 190.943 143.058 190.455V189.983H144.452V190.455ZM144.787 190.455C144.787 190.897 144.897 191.326 145.115 191.74C145.334 192.15 145.665 192.517 146.107 192.841C146.549 193.16 147.096 193.404 147.747 193.572L146.927 194.919C146.152 194.718 145.501 194.399 144.972 193.962C144.443 193.524 144.045 193.005 143.776 192.403C143.507 191.797 143.372 191.148 143.372 190.455V189.983H144.787V190.455ZM147.296 190.489H140.549V189.115H147.296V190.489ZM144.808 189.662H143.058V187.762H144.808V189.662ZM149.367 192.554H146.934V191.152H149.367V192.554ZM150.694 195.336H148.957V187.803H150.694V195.336ZM146.442 195.548C147.33 195.548 148.096 195.639 148.739 195.821C149.381 196.004 149.873 196.27 150.215 196.621C150.561 196.967 150.735 197.387 150.735 197.879C150.735 198.376 150.561 198.802 150.215 199.157C149.873 199.517 149.379 199.791 148.732 199.978C148.089 200.164 147.326 200.258 146.442 200.258C145.567 200.258 144.808 200.164 144.165 199.978C143.527 199.791 143.035 199.517 142.689 199.157C142.342 198.802 142.169 198.376 142.169 197.879C142.169 197.387 142.342 196.967 142.689 196.621C143.035 196.27 143.527 196.004 144.165 195.821C144.803 195.639 145.562 195.548 146.442 195.548ZM146.442 196.881C145.89 196.876 145.425 196.913 145.047 196.99C144.673 197.063 144.389 197.175 144.193 197.325C143.997 197.476 143.899 197.66 143.899 197.879C143.899 198.102 143.997 198.294 144.193 198.453C144.389 198.608 144.676 198.727 145.054 198.809C145.432 198.891 145.895 198.932 146.442 198.932C147.007 198.932 147.476 198.891 147.85 198.809C148.228 198.727 148.513 198.608 148.704 198.453C148.896 198.298 148.991 198.107 148.991 197.879C148.991 197.66 148.896 197.476 148.704 197.325C148.517 197.175 148.233 197.063 147.85 196.99C147.472 196.913 147.002 196.876 146.442 196.881ZM161.843 200.258H160.121V187.803H161.843V200.258ZM163.689 194.119H161.46V192.69H163.689V194.119ZM159.273 191.07H151.965V189.669H159.273V191.07ZM155.65 191.761C156.256 191.761 156.801 191.888 157.284 192.144C157.767 192.394 158.145 192.745 158.418 193.196C158.696 193.647 158.835 194.158 158.835 194.728C158.835 195.297 158.696 195.808 158.418 196.259C158.145 196.71 157.767 197.063 157.284 197.318C156.801 197.569 156.256 197.694 155.65 197.694C155.044 197.694 154.499 197.569 154.016 197.318C153.533 197.063 153.155 196.71 152.881 196.259C152.608 195.808 152.471 195.297 152.471 194.728C152.471 194.158 152.608 193.647 152.881 193.196C153.155 192.745 153.533 192.394 154.016 192.144C154.499 191.888 155.044 191.761 155.65 191.761ZM155.65 193.183C155.363 193.183 155.103 193.246 154.871 193.374C154.643 193.497 154.463 193.677 154.331 193.914C154.203 194.146 154.139 194.418 154.139 194.728C154.139 195.042 154.203 195.315 154.331 195.548C154.463 195.78 154.643 195.96 154.871 196.088C155.103 196.211 155.363 196.272 155.65 196.272C155.946 196.272 156.208 196.211 156.436 196.088C156.664 195.96 156.839 195.78 156.962 195.548C157.09 195.315 157.154 195.042 157.154 194.728C157.154 194.418 157.09 194.146 156.962 193.914C156.839 193.677 156.664 193.497 156.436 193.374C156.208 193.246 155.946 193.183 155.65 193.183ZM156.518 190.202H154.782V188.001H156.518V190.202ZM174.326 200.292H172.596V187.803H174.326V200.292ZM172.952 193.723H170.594V192.301H172.952V193.723ZM165.309 195.944C166.508 195.944 167.513 195.924 168.324 195.883C169.14 195.837 169.962 195.742 170.792 195.596L170.929 197.018C170.072 197.159 169.21 197.257 168.345 197.312C167.483 197.362 166.471 197.389 165.309 197.394H164.284V195.944H165.309ZM169.896 193.524H166.027V196.402H164.284V192.137H168.187V190.264H164.257V188.855H169.896V193.524ZM185.482 200.237H183.732V187.803H185.482V200.237ZM187.239 194.023H185.031V192.588H187.239V194.023ZM182.16 189.088C182.16 190.387 181.976 191.585 181.607 192.684C181.237 193.777 180.636 194.785 179.802 195.705C178.968 196.621 177.874 197.414 176.521 198.084L175.536 196.751C176.653 196.186 177.571 195.548 178.291 194.837C179.016 194.126 179.556 193.324 179.911 192.431C180.271 191.537 180.451 190.528 180.451 189.402V189.088H182.16ZM181.326 190.517H176.233V189.088H181.326V190.517ZM197.945 200.258H196.174V187.803H197.945V200.258ZM194.219 189.115C194.219 190.451 194.039 191.663 193.679 192.752C193.324 193.837 192.72 194.835 191.868 195.746C191.015 196.653 189.874 197.446 188.443 198.125L187.527 196.73C188.725 196.165 189.687 195.53 190.411 194.823C191.136 194.117 191.662 193.324 191.991 192.444C192.319 191.565 192.483 190.558 192.483 189.423V189.115H194.219ZM193.283 190.489H188.19V189.115H193.283V190.489Z" fill="white"/>
<path d="M132.62 234.976L125.666 212.183C125.412 211.349 126.271 210.612 127.056 210.99L148.052 221.099C149.01 221.56 148.681 223 147.618 223H136.886C136.38 223 135.954 223.378 135.893 223.88L134.569 234.805C134.439 235.878 132.935 236.01 132.62 234.976Z" fill="#111111" stroke="white"/>
<path d="M0.483398 301.211V299.395H9.16992V301.211H5.91797V310H3.73535V301.211H0.483398ZM12.7295 299.395V310H10.5322V299.395H12.7295ZM14.5166 310V299.395H18.6768C21.0938 299.395 22.4707 300.874 22.4707 302.969C22.4707 305.093 21.0645 306.543 18.6182 306.543H16.7139V310H14.5166ZM16.7139 304.771H18.2666C19.5703 304.771 20.2002 304.038 20.2002 302.969C20.2002 301.914 19.5703 301.196 18.2666 301.196H16.7139V304.771ZM24.5947 310.132C23.9062 310.132 23.3496 309.575 23.3643 308.901C23.3496 308.228 23.9062 307.686 24.5947 307.686C25.2393 307.686 25.8105 308.228 25.8105 308.901C25.8105 309.575 25.2393 310.132 24.5947 310.132Z" fill="white"/>
<path d="M12.5625 322.328V336.328H11.1406V329.109H9.48438V335.609H8.07812V322.609H9.48438V327.891H11.1406V322.328H12.5625ZM7.15625 324.031V325.25H6.04688V331.516C6.51562 331.477 6.96875 331.43 7.39062 331.375L7.46875 332.469C5.26562 332.891 2.34375 332.953 0.53125 332.953L0.359375 331.703L1.76562 331.688V325.25H0.65625V324.031H7.15625ZM3.125 331.672C3.64062 331.656 4.16406 331.641 4.6875 331.609V325.25H3.125V331.672ZM19.2812 324.859C19.2812 326.875 20.5469 328.797 22.625 329.609L21.8125 330.766C20.2812 330.148 19.1562 328.922 18.5625 327.391C17.9609 329.031 16.7656 330.328 15.1406 330.984L14.3438 329.797C16.5 329 17.7969 327 17.8125 324.859V323.125H19.2812V324.859ZM26.0156 322.344V332.766H24.5312V328.359H21.8125V327.156H24.5312V325.531H21.8125V324.328H24.5312V322.344H26.0156ZM26.3281 334.828V336.031H16.875V331.719H18.375V334.828H26.3281ZM39.7344 322.75V323.875H37.7031V326.297H39.6719V327.438H29.4062V326.297H31.3906V323.875H29.3438V322.75H39.7344ZM40.9375 328.469V329.641H28.1719V328.469H40.9375ZM39.3281 330.734V333.938H31.1719V335.062H39.7188V336.188H29.7188V332.891H37.8594V331.844H29.7031V330.734H39.3281ZM32.8594 326.297H36.2188V323.875H32.8594V326.297ZM53.9375 322.344V331.844H52.5312V327.125H50.8125V330.641H49.4219V322.594H50.8125V325.906H52.5312V322.344H53.9375ZM47.9062 323.391V327.406H44.0625V329.266C45.7969 329.25 47.1172 329.172 48.6562 328.859L48.8125 330.031C47.0625 330.391 45.625 330.453 43.5469 330.453H42.625V326.312H46.4844V324.594H42.5938V323.391H47.9062ZM49.9375 331.516C49.9375 333.234 52.0156 334.734 54.6562 335.109L54.0625 336.266C51.9141 335.93 50.0625 334.891 49.2031 333.406C48.3281 334.891 46.4844 335.93 44.3438 336.266L43.75 335.109C46.375 334.734 48.4531 333.234 48.4531 331.516V331.188H49.9375V331.516ZM68.5938 329.297V330.484H55.8281V329.297H61.4531V327.844H57.0625V326.641H59.0469V323.969H57V322.766H67.3906V323.969H65.3594V326.641H67.3281V327.844H62.9375V329.297H68.5938ZM67.0312 331.703V336.156H57.3594V331.703H67.0312ZM58.8281 332.859V334.953H65.5938V332.859H58.8281ZM60.5156 326.641H63.875V323.969H60.5156V326.641ZM70.5 330.688C70.5156 327.75 71.3438 325.297 72.8125 323.203H74.3438C73.2656 324.75 72.2344 327.906 72.2344 330.688C72.2344 333.484 73.2656 336.625 74.3438 338.188H72.8125C71.3438 336.094 70.5156 333.641 70.5 330.688ZM79.5312 335.172C77.0312 335.172 75.5 333.453 75.5 330.812C75.5 328.203 77.0625 326.406 79.4219 326.406C81.3594 326.406 83.1875 327.609 83.1875 330.672V331.266H77.1562C77.2031 332.875 78.1484 333.797 79.5469 333.797C80.5 333.797 81.1094 333.391 81.3906 332.875H83.0781C82.7031 334.25 81.3906 335.172 79.5312 335.172ZM77.1719 330.016H81.5469C81.5469 328.719 80.7188 327.781 79.4375 327.781C78.1016 327.781 77.2344 328.812 77.1719 330.016ZM85.9688 326.516L87.8281 329.812L89.7031 326.516H91.5312L88.8906 330.75L91.5469 335H89.7344L87.8281 331.828L85.9375 335H84.1094L86.7344 330.75L84.125 326.516H85.9688ZM94.1406 335.109C93.5312 335.109 93.0156 334.609 93.0312 334C93.0156 333.391 93.5312 332.891 94.1406 332.891C94.7344 332.891 95.25 333.391 95.25 334C95.25 334.609 94.7344 335.109 94.1406 335.109ZM113.281 330.359V331.562H107.562V336.312H106.109V331.562H100.469V330.359H113.281ZM111.672 323.078V328.578H102.078V323.078H111.672ZM103.531 324.266V327.422H110.188V324.266H103.531ZM125.922 322.344V332.594H124.438V322.344H125.922ZM126.344 334.828V336.031H116.766V331.625H118.266V334.828H126.344ZM119.406 324.5C119.391 326.547 120.703 328.422 122.859 329.172L122.094 330.359C120.477 329.758 119.281 328.57 118.656 327.047C118.039 328.672 116.828 329.977 115.188 330.609L114.391 329.438C116.594 328.625 117.891 326.609 117.891 324.5V323.109H119.406V324.5ZM133 325.891C132.984 328.375 134.422 330.906 136.516 331.922L135.594 333.109C134.07 332.32 132.891 330.75 132.281 328.875C131.648 330.875 130.422 332.547 128.828 333.375L127.906 332.172C130.062 331.141 131.516 328.453 131.516 325.891V323.5H133V325.891ZM139.047 322.328V327.906H141.297V329.172H139.047V336.328H137.562V322.328H139.047ZM145.812 330.688C145.797 333.641 144.969 336.094 143.5 338.188H141.969C143.047 336.625 144.078 333.484 144.078 330.688C144.078 327.906 143.047 324.75 141.969 323.203H143.5C144.969 325.297 145.797 327.75 145.812 330.688ZM159.734 322.328V336.328H158.312V322.328H159.734ZM156.891 322.594V335.641H155.469V328.891H153.891C153.766 331.625 152.594 333.328 150.859 333.312C149.031 333.328 147.844 331.406 147.844 328.375C147.844 325.344 149.031 323.438 150.859 323.453C152.562 323.438 153.719 325.055 153.891 327.688H155.469V322.594H156.891ZM150.859 324.844C149.844 324.844 149.219 326.141 149.219 328.375C149.219 330.609 149.844 331.906 150.859 331.906C151.891 331.906 152.531 330.609 152.531 328.375C152.531 326.141 151.891 324.844 150.859 324.844ZM166.562 325.891C166.562 328.453 168 331 170.141 331.969L169.234 333.156C167.641 332.359 166.445 330.773 165.828 328.859C165.211 330.875 163.984 332.578 162.375 333.422L161.438 332.219C163.609 331.188 165.062 328.484 165.062 325.891V323.5H166.562V325.891ZM173.188 322.328V336.359H171.719V328.188H168.594V326.984H171.719V322.328H173.188Z" fill="#F1F1F1"/>
<path d="M186.158 331.259L191.85 334.575M191.842 325.425L186.158 328.742M196.5 324.167C196.5 325.548 195.381 326.667 194 326.667C192.619 326.667 191.5 325.548 191.5 324.167C191.5 322.786 192.619 321.667 194 321.667C195.381 321.667 196.5 322.786 196.5 324.167ZM186.5 330C186.5 331.381 185.381 332.5 184 332.5C182.619 332.5 181.5 331.381 181.5 330C181.5 328.62 182.619 327.5 184 327.5C185.381 327.5 186.5 328.62 186.5 330ZM196.5 335.834C196.5 337.214 195.381 338.334 194 338.334C192.619 338.334 191.5 337.214 191.5 335.834C191.5 334.453 192.619 333.334 194 333.334C195.381 333.334 196.5 334.453 196.5 335.834Z" stroke="white" stroke-width="1.2" stroke-linecap="round" stroke-linejoin="round"/>
<path d="M209.828 331.125C212.859 331.125 214.766 332.078 214.781 333.719C214.766 335.344 212.859 336.312 209.828 336.297C206.828 336.312 204.906 335.344 204.906 333.719C204.906 332.078 206.828 331.125 209.828 331.125ZM209.828 332.25C207.703 332.25 206.375 332.797 206.391 333.719C206.375 334.625 207.703 335.156 209.828 335.156C211.969 335.156 213.297 334.625 213.312 333.719C213.297 332.797 211.969 332.25 209.828 332.25ZM214.672 323.016V324.188C214.672 325.312 214.672 326.469 214.281 327.906L212.828 327.75C213.203 326.32 213.203 325.289 213.203 324.203H205.016V323.016H214.672ZM216.266 328.766V329.969H203.531V328.766H208.641V326.141H210.094V328.766H216.266ZM230.141 330.234V331.453H226.891V336.328H225.391V331.453H222.047V336.328H220.516V331.453H217.328V330.234H230.141ZM223.703 322.859C226.656 322.859 228.688 324.062 228.688 325.953C228.688 327.812 226.656 329 223.703 328.984C220.734 329 218.719 327.812 218.719 325.953C218.719 324.062 220.734 322.859 223.703 322.859ZM223.703 324.047C221.625 324.062 220.234 324.781 220.25 325.953C220.234 327.094 221.625 327.812 223.703 327.812C225.781 327.812 227.172 327.094 227.172 325.953C227.172 324.781 225.781 324.062 223.703 324.047ZM242.078 322.328V328H244.328V329.234H242.078V336.328H240.609V322.328H242.078ZM239.391 324.516V325.734H231.094V324.516H234.547V322.516H236.031V324.516H239.391ZM235.297 326.766C237.297 326.766 238.766 328.109 238.781 330.016C238.766 331.938 237.297 333.266 235.297 333.281C233.281 333.266 231.812 331.938 231.812 330.016C231.812 328.109 233.281 326.766 235.297 326.766ZM235.297 327.984C234.109 327.984 233.219 328.812 233.234 330.016C233.219 331.234 234.109 332.047 235.297 332.031C236.484 332.047 237.359 331.234 237.359 330.016C237.359 328.812 236.484 327.984 235.297 327.984ZM256.641 322.328V336.328H255.141V322.328H256.641ZM252.469 323.828C252.469 327.922 250.719 331.484 245.922 333.781L245.141 332.578C248.867 330.805 250.68 328.281 250.969 325.016H245.812V323.828H252.469Z" fill="#F1F1F1"/>
<path d="M12.1875 348.328V362.359H10.7188V354.656H7.625V358.891H1.0625V349.406H2.5625V352.984H6.17188V349.406H7.625V353.438H10.7188V348.328H12.1875ZM2.5625 357.672H6.17188V354.156H2.5625V357.672ZM27.1094 356.016V357.203H14.3125V356.016H27.1094ZM25.7812 360.828V362.031H15.9531V358.125H17.4219V360.828H25.7812ZM25.6406 353.703V354.844H15.9844V348.828H25.5469V349.984H17.4844V351.266H25.1875V352.391H17.4844V353.703H25.6406ZM34.5469 348.562C37.7031 348.562 39.5469 349.406 39.5469 350.969C39.5469 352.531 37.7031 353.391 34.5469 353.391C31.3906 353.391 29.5469 352.531 29.5469 350.969C29.5469 349.406 31.3906 348.562 34.5469 348.562ZM34.5469 349.656C32.3125 349.656 31.0781 350.141 31.0938 350.969C31.0781 351.828 32.3125 352.281 34.5469 352.281C36.7812 352.281 38.0156 351.828 38.0156 350.969C38.0156 350.141 36.7812 349.656 34.5469 349.656ZM40.9375 354.25V355.438H28.1719V354.25H40.9375ZM39.3281 356.516V359.797H31.1719V361.047H39.7188V362.188H29.7188V358.719H37.8594V357.625H29.7031V356.516H39.3281ZM57.2656 352.938V354.141H47.5312V349.016H49.0156V352.938H57.2656ZM58.7188 356.078V357.297H52.9844V362.328H51.5156V357.297H45.9062V356.078H58.7188ZM72.5469 359.391V360.609H59.7344V359.391H72.5469ZM70.9844 349.359V353.734H62.7656V355.781H71.3125V356.969H61.2969V352.531H69.5156V350.562H61.2656V349.359H70.9844ZM80.7031 349.516V350.703H83.75V348.344H85.2344V358.547H83.75V354.922H80.7031V356.141H74.2031V349.516H80.7031ZM75.6719 350.719V354.969H79.25V350.719H75.6719ZM85.5469 360.828V362.031H76.0938V357.609H77.5938V360.828H85.5469ZM80.7031 353.703H83.75V351.922H80.7031V353.703ZM99.2031 349.688H100.922V357.125C100.922 359.5 99.1406 361.188 96.4375 361.188C93.7031 361.188 91.9375 359.5 91.9375 357.125V349.688H93.6562V356.984C93.6562 358.516 94.7188 359.625 96.4375 359.625C98.1406 359.625 99.2031 358.516 99.2031 356.984V349.688ZM103.234 361V349.688H107.266C109.891 349.688 111.188 351.156 111.188 353.234C111.188 354.758 110.5 355.914 109.125 356.422L111.625 361H109.672L107.375 356.734H107.266H104.953V361H103.234ZM104.953 355.25H107.094C108.766 355.25 109.453 354.516 109.453 353.234C109.453 351.953 108.766 351.156 107.094 351.156H104.953V355.25ZM113.094 361V349.688H114.812V359.516H119.922V361H113.094ZM127.422 348.562C130.578 348.562 132.422 349.406 132.422 350.969C132.422 352.531 130.578 353.391 127.422 353.391C124.266 353.391 122.422 352.531 122.422 350.969C122.422 349.406 124.266 348.562 127.422 348.562ZM127.422 349.656C125.188 349.656 123.953 350.141 123.969 350.969C123.953 351.828 125.188 352.281 127.422 352.281C129.656 352.281 130.891 351.828 130.891 350.969C130.891 350.141 129.656 349.656 127.422 349.656ZM133.812 354.25V355.438H121.047V354.25H133.812ZM132.203 356.516V359.797H124.047V361.047H132.594V362.188H122.594V358.719H130.734V357.625H122.578V356.516H132.203ZM142.453 357.016V358.438H148.875V357.016H150.344V362.156H140.969V357.016H142.453ZM142.453 360.953H148.875V359.578H142.453V360.953ZM150.344 348.344V356.375H148.859V348.344H150.344ZM138.797 354.375C141.438 354.391 144.922 354.391 147.969 353.984L148.062 355.047C146.859 355.25 145.617 355.383 144.391 355.453V357.406H142.922V355.531C141.508 355.594 140.164 355.594 138.984 355.594L138.797 354.375ZM144.281 349.328C144.281 350.688 145.578 351.844 147.656 352.281L147 353.391C145.375 353.039 144.156 352.219 143.547 351.109C142.938 352.305 141.719 353.219 140.047 353.625L139.375 352.469C141.484 352 142.766 350.766 142.766 349.328V348.672H144.281V349.328ZM164.641 348.328V362.328H163.234V348.328H164.641ZM161.688 348.688V361.641H160.281V355.141H157.547C156.711 356.766 155.383 358.188 153.406 359.344L152.562 358.281C155.531 356.516 156.961 354.164 157.219 351.281H153.219V350.062H158.688C158.68 351.43 158.492 352.734 158.062 353.953H160.281V348.688H161.688ZM183.109 355.469V356.672H170.344V355.469H175.984V353.953H172.016V348.656H173.484V350.172H179.969V348.656H181.453V353.953H177.453V355.469H183.109ZM181.547 357.922V362.328H180.047V359.109H171.766V357.922H181.547ZM173.484 352.766H179.969V351.281H173.484V352.766ZM189.031 351.891C189.016 354.375 190.453 356.906 192.547 357.922L191.625 359.109C190.102 358.32 188.922 356.75 188.312 354.875C187.68 356.875 186.453 358.547 184.859 359.375L183.938 358.172C186.094 357.141 187.547 354.453 187.547 351.891V349.5H189.031V351.891ZM195.078 348.328V353.906H197.328V355.172H195.078V362.328H193.594V348.328H195.078ZM209 348.281V351.562H211.047V352.781H209V355.984H207.516V348.281H209ZM209 356.641V359.891H201.438V361.062H209.484V362.188H199.984V358.844H207.531V357.75H199.953V356.641H209ZM206.359 349.516V350.688H198.016V349.516H201.453V348.203H202.938V349.516H206.359ZM202.188 351.219C204.234 351.219 205.578 352.094 205.578 353.516C205.578 354.938 204.234 355.797 202.188 355.797C200.125 355.797 198.781 354.938 198.781 353.516C198.781 352.094 200.125 351.219 202.188 351.219ZM202.188 352.281C200.984 352.281 200.203 352.766 200.219 353.516C200.203 354.266 200.984 354.719 202.188 354.719C203.391 354.719 204.172 354.266 204.188 353.516C204.172 352.766 203.391 352.281 202.188 352.281ZM222.906 349.562C222.891 351.422 225.172 353.172 227.922 353.531L227.344 354.75C225.055 354.383 223.039 353.195 222.141 351.547C221.219 353.203 219.211 354.383 216.938 354.75L216.344 353.531C219.094 353.172 221.344 351.438 221.359 349.562V348.797H222.906V349.562ZM228.5 356.125V357.344H222.812V362.328H221.359V357.344H215.734V356.125H228.5ZM238.328 357.578C238.328 358.781 238.922 360.055 240.188 360.812C241.477 359.992 242.109 358.648 242.109 357.578V356.906H243.562V357.578C243.562 359.031 244.516 360.438 246.344 361.031L245.609 362.125C244.227 361.648 243.289 360.719 242.797 359.562C242.352 360.695 241.516 361.719 240.234 362.25C238.891 361.742 238.039 360.75 237.609 359.609C237.102 360.711 236.18 361.641 234.859 362.125L234.109 361.031C235.906 360.391 236.875 358.938 236.891 357.578V356.906H238.328V357.578ZM245.078 348.344V356.312H243.594V348.344H245.078ZM237.484 349.109C239.625 349.109 241.203 350.469 241.203 352.422C241.203 354.359 239.625 355.703 237.484 355.703C235.344 355.703 233.75 354.359 233.75 352.422C233.75 350.469 235.344 349.109 237.484 349.109ZM237.484 350.375C236.156 350.359 235.203 351.188 235.203 352.422C235.203 353.641 236.156 354.469 237.484 354.469C238.797 354.469 239.75 353.641 239.75 352.422C239.75 351.188 238.797 350.359 237.484 350.375ZM251.094 349.375C252.992 349.375 254.383 350.984 254.609 353.578H257.5V348.328H258.969V362.359H257.5V354.781H254.625C254.461 357.508 253.039 359.203 251.094 359.203C249 359.203 247.531 357.297 247.547 354.281C247.531 351.281 249 349.375 251.094 349.375ZM251.094 350.703C249.828 350.703 248.953 352.078 248.953 354.281C248.953 356.5 249.828 357.875 251.094 357.875C252.359 357.875 253.234 356.5 253.234 354.281C253.234 352.078 252.359 350.703 251.094 350.703ZM273.938 359.344V360.578H261.125V359.344H264.188V355.688C263.039 355.055 262.344 354.047 262.344 352.797C262.344 350.594 264.5 349.141 267.5 349.141C270.516 349.141 272.672 350.594 272.672 352.797C272.672 354.031 272 355.023 270.875 355.656V359.344H273.938ZM267.5 350.328C265.297 350.328 263.781 351.281 263.781 352.797C263.781 354.297 265.297 355.281 267.5 355.281C269.688 355.281 271.234 354.297 271.234 352.797C271.234 351.281 269.688 350.328 267.5 350.328ZM265.656 359.344H269.375V356.219C268.805 356.367 268.172 356.438 267.5 356.438C266.844 356.438 266.219 356.367 265.656 356.234V359.344ZM276.547 361.109C275.938 361.109 275.422 360.609 275.438 360C275.422 359.391 275.938 358.891 276.547 358.891C277.141 358.891 277.656 359.391 277.656 360C277.656 360.609 277.141 361.109 276.547 361.109Z" fill="#F1F1F1"/>
</svg>
