<svg width="720" height="720" viewBox="0 0 720 720" fill="none" xmlns="http://www.w3.org/2000/svg">
<rect width="720" height="720" fill="#FA6EE3"/>
<path d="M261.355 293.535C244.822 298.869 233.089 313.135 228.155 333.935C224.955 347.402 225.355 374.602 228.822 388.202C232.289 401.002 236.155 408.069 244.289 415.535C254.555 425.002 260.422 427.002 278.289 427.002C292.422 427.002 294.289 426.735 301.222 423.269C319.755 414.202 328.955 394.602 328.955 364.469V349.002L303.355 349.269L277.622 349.669L277.222 363.935L276.822 378.335H284.955C292.422 378.335 292.955 378.469 292.955 381.535C292.955 387.269 290.022 393.002 286.155 395.002C278.422 399.135 269.489 396.202 265.889 388.602C260.822 378.069 259.755 350.335 263.755 336.469C268.289 320.735 285.089 319.135 292.689 333.669L294.955 338.069L310.022 332.735C318.155 329.802 324.955 326.869 324.955 326.069C324.955 322.869 317.222 309.535 312.689 304.869C310.022 302.069 304.555 298.069 300.689 296.069C294.555 293.002 291.755 292.469 280.289 292.069C271.622 291.802 264.955 292.335 261.355 293.535Z" fill="black"/>
<path d="M568.288 293.402C551.221 299.135 540.288 312.069 534.688 333.135C531.888 343.669 531.621 372.735 534.155 384.335C538.421 403.402 547.888 416.869 562.155 423.535C568.821 426.602 571.221 427.002 584.955 427.002C599.088 427.002 600.955 426.735 607.888 423.269C626.555 414.069 636.288 392.602 635.355 362.335L634.955 349.669H609.621H584.288L583.888 363.935L583.488 378.335H591.755H600.021L599.088 383.669C598.688 386.735 597.488 390.335 596.688 391.669C592.688 398.069 580.021 398.469 574.688 392.335C570.421 387.535 568.955 381.002 568.021 364.869C566.555 337.535 572.155 323.669 584.688 323.669C590.955 323.669 595.755 327.002 598.821 333.535L601.088 338.202L615.888 332.869C624.155 329.935 631.088 327.269 631.355 327.002C632.688 325.669 624.555 311.269 619.488 305.669C610.288 295.669 602.821 292.602 586.955 292.069C578.421 291.802 571.621 292.335 568.288 293.402Z" fill="black"/>
<path d="M84.9552 309.669V325.002H103.755C121.089 325.002 122.555 325.135 121.889 327.269C121.489 329.002 94.2886 397.935 84.0219 423.269C83.4886 424.602 92.5552 425.002 126.822 425.002H170.289V409.669V394.335H152.155C135.489 394.335 134.022 394.202 134.689 391.935C134.955 390.735 143.222 369.535 152.955 345.002C162.689 320.469 171.089 299.002 171.755 297.269L172.955 294.335H128.955H84.9552V309.669Z" fill="black"/>
<path d="M182.289 359.669V425.002H199.622H216.956V359.669V294.335H199.622H182.289V359.669Z" fill="black"/>
<path d="M331.621 309.669V325.002H350.288C360.555 325.002 368.955 325.402 368.955 325.935C368.955 326.335 360.421 348.202 350.155 374.202C339.755 400.335 330.955 422.469 330.688 423.269C330.155 424.602 339.221 425.002 373.488 425.002H416.955V409.669V394.335H398.821C382.155 394.335 380.688 394.202 381.355 391.935C381.621 390.735 389.888 369.535 399.621 345.002C409.355 320.469 417.755 299.002 418.421 297.269L419.621 294.335H375.621H331.621V309.669Z" fill="black"/>
<path d="M457.622 295.935C457.355 296.869 449.488 325.535 440.288 359.669C431.088 393.802 423.222 422.469 422.955 423.402C422.422 424.735 426.155 425.002 439.888 424.735L457.488 424.335L460.022 413.269L462.555 402.202L479.355 402.602L496.155 403.002L498.822 413.935L501.488 425.002H518.688H535.888L534.955 421.269C534.555 419.269 527.355 392.469 518.955 361.669C510.688 330.869 503.222 303.135 502.288 299.935L500.822 294.335H479.488C463.622 294.335 458.022 294.735 457.622 295.935ZM484.422 351.935C486.955 362.469 488.955 371.402 488.955 371.935C488.955 372.602 484.555 373.002 479.222 373.002H469.355L474.155 352.335C476.688 341.002 479.088 332.069 479.355 332.335C479.622 332.602 481.888 341.402 484.422 351.935Z" fill="black"/>
</svg>
