<svg width="40" height="40" viewBox="0 0 40 40" fill="none" xmlns="http://www.w3.org/2000/svg">
<path d="M10.2079 22.9381L10.0971 21.7408C9.90335 19.6231 10.4224 17.5053 11.5574 15.7336L11.592 15.6852C15.5922 9.4565 24.5269 9.4565 28.5271 15.6852L28.5825 15.7752C29.7106 17.5261 30.2227 19.6162 30.0497 21.7063L29.9459 22.9451" stroke="#555555" stroke-miterlimit="10" stroke-linejoin="round"/>
<path d="M14.5819 22.1424L14.5197 21.0213C14.4089 19.0488 14.6996 17.0695 15.3294 15.4085L15.3501 15.3601C17.5717 9.54664 22.5408 9.54664 24.7693 15.3601L24.8039 15.4431C25.4268 17.0764 25.7174 19.0281 25.6205 20.9797L25.5652 22.1424" stroke="#555555" stroke-miterlimit="10" stroke-linejoin="round"/>
<path d="M10.2149 22.9377L9.05217 27.1939C8.77534 28.2182 9.64737 29.1733 10.6716 28.9726C13.523 28.4051 16.7065 28.0867 20.07 28.0867C23.4404 28.0867 26.624 28.4051 29.4823 28.9726C30.4996 29.1733 31.3716 28.2251 31.1017 27.2077L29.9598 22.9377C27.0046 22.3217 23.5996 21.9688 20.07 21.9688C16.5404 21.9688 13.17 22.3217 10.2149 22.9377Z" fill="#F7F7F7" stroke="#555555" stroke-miterlimit="10" stroke-linejoin="round"/>
<path d="M20.0701 19.3126C21.2168 19.3126 22.1464 18.3831 22.1464 17.2364C22.1464 16.0897 21.2168 15.1602 20.0701 15.1602C18.9235 15.1602 17.9939 16.0897 17.9939 17.2364C17.9939 18.3831 18.9235 19.3126 20.0701 19.3126Z" fill="#FFF6CC" stroke="#555555" stroke-miterlimit="10" stroke-linejoin="round"/>
</svg>
