<svg width="40" height="40" viewBox="0 0 40 40" fill="none" xmlns="http://www.w3.org/2000/svg">
<g clip-path="url(#clip0_55091_3028)">
<rect width="40" height="40" rx="20" fill="#F7F7F7"/>
<rect width="40" height="40" fill="#F7F7F7"/>
<path d="M18.0769 14.8462V10H24.5384V14.8462" fill="#F7F7F7"/>
<path d="M18.0769 14.8462V10H24.5384V14.8462" stroke="#555555" stroke-miterlimit="10" stroke-linejoin="round"/>
<path d="M11.6154 13.2308C12.5075 13.2308 13.2308 12.5075 13.2308 11.6154C13.2308 10.7232 12.5075 10 11.6154 10C10.7232 10 10 10.7232 10 11.6154C10 12.5075 10.7232 13.2308 11.6154 13.2308Z" fill="#F7F7F7" stroke="#555555" stroke-miterlimit="10" stroke-linejoin="round"/>
<path d="M14.0386 11.6152H18.077" stroke="#555555" stroke-miterlimit="10" stroke-linejoin="round"/>
<path d="M17.1309 31.0006H25.4846C26.7125 31.0006 27.88 30.4721 28.6784 29.5653C30.2015 27.8363 31.0872 25.5658 30.9933 23.0931C30.8054 18.265 26.746 14.2787 21.7875 14.0503C16.2184 13.7893 11.6155 18.1019 11.6155 23.465C11.6155 25.7942 12.4878 27.9276 13.9371 29.5653C14.7355 30.4721 15.903 31.0006 17.1309 31.0006Z" stroke="#555555" stroke-miterlimit="10" stroke-linejoin="round"/>
<path d="M14.0386 24.5391C14.211 25.8334 14.7546 27.0566 15.6298 28.0598C15.9149 28.3898 16.3326 28.5775 16.7768 28.5775H25.0311C25.4687 28.5775 25.8864 28.3898 26.1715 28.0598C27.0533 27.0566 27.597 25.8334 27.7693 24.5391H14.0386Z" fill="#FFF6CC"/>
</g>
<defs>
<clipPath id="clip0_55091_3028">
<rect width="40" height="40" rx="20" fill="white"/>
</clipPath>
</defs>
</svg>
