<svg width="40" height="40" viewBox="0 0 40 40" fill="none" xmlns="http://www.w3.org/2000/svg">
<g clip-path="url(#clip0_55091_3015)">
<rect width="40" height="40" rx="20" fill="#F7F7F7"/>
<rect width="40" height="40" fill="#F7F7F7"/>
<path d="M25.4808 10.9644L24.8048 11.0935C24.8048 11.1011 24.8048 11.1011 24.8048 11.1087C22.192 12.0202 21.6755 14.0937 21.0982 15.666H19.9133C19.3133 14.0406 18.2575 11.7923 16.0245 10.9492L15.3485 10.9568C12.8723 11.329 10.1456 14.8001 11.2545 18.332C11.2697 18.3928 11.3153 18.4459 11.3684 18.4839C11.4596 18.5523 12.9635 19.6612 15.5004 19.6612C16.7156 19.6612 18.174 19.403 19.8298 18.6586H21.197C26.286 20.96 29.5216 18.5903 29.6583 18.4915C29.7115 18.4535 29.7495 18.4004 29.7723 18.3396C30.9344 14.5798 27.3645 11.3214 25.4808 10.9644Z" stroke="#555555" stroke-miterlimit="10" stroke-linejoin="round"/>
<path d="M29.1948 22.7891L29.5138 25.2652C21.5765 27.3236 22.3892 31.4176 21.7892 32.3062H19.2295C18.6294 31.4176 19.4422 27.3236 11.5049 25.2652L11.8239 22.7891H29.1948Z" fill="#FFF6CC" stroke="#555555" stroke-miterlimit="10" stroke-linejoin="round"/>
<path d="M15.5383 10.9471V8" stroke="#555555" stroke-miterlimit="10" stroke-linejoin="round"/>
<path d="M25.3518 10.9471V8" stroke="#555555" stroke-miterlimit="10" stroke-linejoin="round"/>
</g>
<defs>
<clipPath id="clip0_55091_3015">
<rect width="40" height="40" rx="20" fill="white"/>
</clipPath>
</defs>
</svg>
