<svg width="40" height="40" viewBox="0 0 40 40" fill="none" xmlns="http://www.w3.org/2000/svg">
<rect width="40" height="40" fill="#F7F7F7"/>
<path d="M9.16101 22.9492V26.0982H31.1895V22.9492" fill="#F7F7F7"/>
<path d="M9.16101 22.9492V26.0982H31.1895V22.9492" stroke="#555555" stroke-miterlimit="10" stroke-linejoin="round"/>
<path d="M17.1584 16.3732L18.3583 15.0762C18.3583 15.0762 24.6006 17.157 29.65 19.1614C31.3562 19.8342 31.1897 22.3589 31.1897 22.9415C31.1897 22.9415 9.27226 23.0525 9.16128 22.9415C8.48156 19.425 10.167 16.6506 10.167 16.6506L13.0038 17.4552C14.4672 17.8713 16.0903 17.5038 17.1306 16.394C17.1445 16.394 17.1515 16.3801 17.1584 16.3732Z" stroke="#555555" stroke-miterlimit="10" stroke-linejoin="round"/>
<path d="M21.9371 16.3379L18.3582 22.9062" stroke="#555555" stroke-miterlimit="10" stroke-linejoin="round"/>
<path d="M22.7974 22.9077L25 17.5L22 16.5C20.8333 18.5 18.5 22.9077 18.5 22.9077H22.7974Z" fill="#FFF6CC" stroke="#555555" stroke-miterlimit="10" stroke-linejoin="round"/>
<path d="M10.1668 16.6577L9.1958 15" stroke="#555555" stroke-miterlimit="10" stroke-linejoin="round"/>
</svg>
