<svg width="40" height="40" viewBox="0 0 40 40" fill="none" xmlns="http://www.w3.org/2000/svg">
<rect width="40" height="40" fill="#F7F7F7"/>
<path d="M22.7566 15.1523L22.93 26.8985H11.2062L11.3852 15.1523" stroke="#555555" stroke-miterlimit="10" stroke-linejoin="round"/>
<path d="M22.941 22.8828L24.8763 26.5968L27.136 25.7467L24.0485 10.1298L20.4239 9.0056C18.6564 11.0584 15.4794 11.0584 13.7174 9L10.0873 10.1298L6.99976 25.7467L9.32102 26.5968L11.1836 22.8828" stroke="#555555" stroke-miterlimit="10" stroke-linejoin="round"/>
<path d="M22.9296 24.1035H11.2058" stroke="#555555" stroke-miterlimit="10" stroke-linejoin="round"/>
<path d="M29.9748 26.2364L31.3508 28.8764C31.6696 29.4917 32.4024 29.7714 33.0456 29.5253C33.6888 29.2848 34.0524 28.6023 33.8958 27.9311L31.6193 16.2409C31.2893 14.5405 30.0475 13.1645 28.3975 12.6499L27.4578 12.3591C25.6903 14.4119 22.5132 14.4119 20.7513 12.3535L19.806 12.6499C18.156 13.1645 16.9198 14.5405 16.5842 16.2409L14.3077 27.9199C14.1511 28.5911 14.5203 29.2792 15.1691 29.5141L15.2082 29.5308C15.8627 29.7714 16.5898 29.4805 16.903 28.8597L18.2175 26.2364" fill="#F7F7F7"/>
<path d="M29.9748 26.2364L31.3508 28.8764C31.6696 29.4917 32.4024 29.7714 33.0456 29.5253C33.6888 29.2848 34.0524 28.6023 33.8958 27.9311L31.6193 16.2409C31.2893 14.5405 30.0475 13.1645 28.3975 12.6499L27.4578 12.3591C25.6903 14.4119 22.5132 14.4119 20.7513 12.3535L19.806 12.6499C18.156 13.1645 16.9198 14.5405 16.5842 16.2409L14.3077 27.9199C14.1511 28.5911 14.5203 29.2792 15.1691 29.5141L15.2082 29.5308C15.8627 29.7714 16.5898 29.4805 16.903 28.8597L18.2175 26.2364" stroke="#555555" stroke-miterlimit="10" stroke-linejoin="round"/>
<path d="M29.7566 18.5059L29.9635 30.252H18.2397L18.4467 18.5059" fill="#F7F7F7"/>
<path d="M29.7566 18.5059L29.9635 30.252H18.2397L18.4467 18.5059" stroke="#555555" stroke-miterlimit="10" stroke-linejoin="round"/>
<path d="M23.0724 16.0137V20.1472" stroke="#555555" stroke-miterlimit="10" stroke-linejoin="round"/>
<path d="M25.1361 16.0137V22.7034" stroke="#555555" stroke-miterlimit="10" stroke-linejoin="round"/>
<path d="M29.963 13.3125C28.587 15.0241 26.4727 16.1204 24.1011 16.1204C21.7798 16.1204 19.7047 15.0689 18.3231 13.4132" stroke="#555555" stroke-miterlimit="10" stroke-linejoin="round"/>
</svg>
