<svg width="86" height="26" viewBox="0 0 86 26" fill="none" xmlns="http://www.w3.org/2000/svg">
<g clip-path="url(#clip0_473_876)">
<path d="M15.8964 1.18945L23.6294 25.9992H15.7192L14.8712 22.8003H8.70758L7.88492 25.9992H0L7.73304 1.18945H15.8964ZM10.4162 16.4026H13.2259L11.821 11.0588L10.4162 16.4026Z" fill="white"/>
<path d="M33.4382 1.18945V25.9992H25.895V1.18945H33.4382Z" fill="white"/>
<path d="M36.7793 26V8.74106H44.3478V26H36.7793ZM40.6142 0C41.1837 0 41.69 0.0867906 42.1456 0.272771C42.6012 0.458751 42.9936 0.719123 43.3226 1.04149C43.6517 1.37625 43.9048 1.76061 44.0694 2.19456C44.2339 2.64092 44.3225 3.11207 44.3225 3.63281C44.3225 4.15355 44.2339 4.5999 44.0567 5.03386C43.8795 5.48021 43.6264 5.85217 43.31 6.17454C42.9936 6.4969 42.6012 6.75727 42.1329 6.94325C41.6647 7.14163 41.1331 7.22842 40.5635 7.22842C39.994 7.22842 39.4878 7.12923 39.0448 6.94325C38.6018 6.75727 38.2095 6.4969 37.8804 6.17454C37.5513 5.85217 37.2982 5.46781 37.1337 5.03386C36.9691 4.58751 36.8805 4.12876 36.8805 3.63281C36.8805 3.13686 36.9691 2.64092 37.1463 2.19456C37.3235 1.74821 37.5766 1.36385 37.8931 1.04149C38.2095 0.706724 38.6018 0.458751 39.0701 0.272771C39.5384 0.0867906 40.0573 0 40.6142 0Z" fill="white"/>
<path d="M55.2702 1.18945V25.9992H47.7271V1.18945H55.2702Z" fill="white"/>
<path d="M64.5853 7.27889L65.3447 8.27078C66.0788 7.70044 66.8255 7.32848 67.5849 7.1549C68.3443 6.98132 68.9644 6.89453 69.4327 6.89453C70.4452 6.89453 71.3818 7.06811 72.2424 7.40288C73.1031 7.73764 73.8371 8.30798 74.432 9.10149C74.8876 8.60555 75.3432 8.20879 75.8242 7.91122C76.3051 7.61365 76.7734 7.39048 77.2164 7.25409C77.6594 7.11771 78.077 7.00612 78.4567 6.96892C78.8364 6.93173 79.1402 6.89453 79.3806 6.89453C80.3045 6.89453 81.1652 7.03092 81.9752 7.31609C82.7852 7.60126 83.4813 8.06001 84.0761 8.70474C84.671 9.34947 85.1393 10.1926 85.481 11.2217C85.8227 12.2632 85.9999 13.5278 85.9999 15.0157V25.9885H78.5453V15.5364C78.5453 14.9537 78.4314 14.4701 78.2036 14.0982C77.9758 13.7262 77.5961 13.5526 77.0772 13.5526C76.6848 13.5526 76.3304 13.6766 76.0014 13.937C76.014 14.123 76.0267 14.2965 76.0267 14.4701V25.9761H68.5721V15.524C68.5721 14.9413 68.4582 14.4577 68.2304 14.0858C68.0025 13.7138 67.6229 13.5402 67.1039 13.5402C66.8761 13.5402 66.661 13.5774 66.4458 13.6642C66.2307 13.751 66.0155 13.9122 65.813 14.1477V25.9761H58.3584V7.27889H64.5727H64.5853Z" fill="white"/>
</g>
<defs>
<clipPath id="clip0_473_876">
<rect width="86" height="26" fill="white"/>
</clipPath>
</defs>
</svg>
