<svg width="84" height="27" viewBox="0 0 84 27" fill="none" xmlns="http://www.w3.org/2000/svg">
<path d="M60.4145 25.0078H56.9631L63.0892 3.60953H57.1932V0.158203L73.7021 0.158203V3.63829H66.5406L64.3835 11.1449C64.3835 15.0564 65.8886 17.8175 68.899 19.4281C69.5892 19.8116 70.3562 20.1184 71.1999 20.3485C72.0435 20.5786 72.6379 20.7128 72.983 20.7511C73.3473 20.7703 73.5966 20.7799 73.7308 20.7799L73.6733 24.2312C73.4049 24.2312 73.0597 24.212 72.6379 24.1737C72.2161 24.1353 71.4587 23.9724 70.3658 23.6848C69.292 23.4163 68.295 23.0328 67.3746 22.5343C65.4956 21.5564 64.0192 20.2334 62.9454 18.5653C62.7729 18.316 62.6195 18.0572 62.4853 17.7887L60.4145 25.0078ZM81.0937 10.1095C81.7647 10.1095 82.34 10.3588 82.8193 10.8573C83.2987 11.3367 83.5383 11.9215 83.5383 12.6117C83.5383 13.2828 83.2987 13.8581 82.8193 14.3374C82.34 14.8168 81.7647 15.0564 81.0937 15.0564H80.8061V25.0078H77.326V0.158203H80.8061V10.1095H81.0937Z" fill="#FFC814"/>
<path d="M49.2808 22.5918V19.8595C49.2808 19.7637 49.2425 19.7157 49.1658 19.7157H33.7786C33.7019 19.7157 33.6636 19.7637 33.6636 19.8595V22.5918C33.6636 22.6685 33.7019 22.7069 33.7786 22.7069H49.1658C49.2425 22.7069 49.2808 22.6685 49.2808 22.5918ZM52.7321 23.8573C52.7321 24.4901 52.5116 25.0269 52.0706 25.4679C51.6296 25.9281 51.0832 26.1582 50.4313 26.1582H32.5131C31.8804 26.1582 31.3339 25.9281 30.8737 25.4679C30.4327 25.0269 30.2122 24.4901 30.2122 23.8573V18.5653C30.2122 17.9325 30.4327 17.3957 30.8737 16.9547C31.3339 16.4945 31.8804 16.2644 32.5131 16.2644H50.4313C51.0832 16.2644 51.6296 16.4945 52.0706 16.9547C52.5116 17.3957 52.7321 17.9325 52.7321 18.5653V23.8573ZM40.0485 13.8197L40.8251 4.27103C40.8251 4.25186 40.8251 4.23269 40.8251 4.21351C40.8251 4.06012 40.7675 3.9259 40.6525 3.81086C40.5374 3.69581 40.3936 3.63829 40.2211 3.63829H28.6304V0.158203H41.3428C42.2056 0.158203 42.9342 0.455401 43.5286 1.0498C44.1422 1.64419 44.449 2.35363 44.449 3.17811C44.449 3.25481 44.449 3.33151 44.449 3.4082L43.6149 13.8197H40.0485ZM53.6813 5.65157C54.199 5.65157 54.64 5.83372 55.0043 6.19803C55.3686 6.56233 55.5507 7.00334 55.5507 7.52104C55.5507 8.03873 55.3686 8.47974 55.0043 8.84404C54.64 9.20835 54.199 9.3905 53.6813 9.3905H52.7897V14.9701H49.3096V0.158203H52.7897V5.65157H53.6813Z" fill="#FFC814"/>
<path d="M4.14159 22.4214C4.10325 22.4214 4.04572 22.4118 3.96903 22.3926C3.89233 22.3926 3.83481 22.3926 3.79646 22.3926C3.75811 22.3926 3.71018 22.4022 3.65266 22.4214C3.61431 22.4406 3.58555 22.4598 3.56637 22.4789C3.56637 22.5173 3.56637 22.5748 3.56637 22.6515V22.9391C3.56637 23.0733 3.60472 23.15 3.68142 23.1692C3.75811 23.2075 3.88274 23.2267 4.05531 23.2267C4.09366 23.2267 4.12242 23.2267 4.14159 23.2267H24.3606V26.1316H3.71018C2.86652 26.1316 2.14749 25.8344 1.5531 25.24C0.977876 24.6456 0.690265 23.9362 0.690265 23.1117V22.5365C0.690265 22.0188 0.786136 21.5586 0.977876 21.1559C1.18879 20.7533 1.43805 20.4561 1.72566 20.2643C2.03245 20.0726 2.32965 19.9192 2.61726 19.8042C2.92404 19.6699 3.18289 19.5837 3.39381 19.5453L3.71018 19.4878H21.2832C21.3791 19.4878 21.4462 19.4686 21.4845 19.4303C21.542 19.3919 21.5708 19.3536 21.5708 19.3152L21.542 19.2577V18.9413C21.5804 18.7496 21.4941 18.6537 21.2832 18.6537H0.690265V15.7488H21.3407C22.1844 15.7488 22.8938 16.046 23.469 16.6404C24.0634 17.2348 24.3606 17.9443 24.3606 18.7688V19.3727C24.3606 20.1972 24.0634 20.9162 23.469 21.5298C22.8938 22.1242 22.1844 22.4214 21.3407 22.4214H4.14159ZM7.36283 3.72672C6.32743 3.74589 5.43584 4.11979 4.68805 4.8484C3.95944 5.55784 3.59513 6.42067 3.59513 7.4369C3.59513 8.45312 3.95944 9.32554 4.68805 10.0542C5.43584 10.7828 6.32743 11.1471 7.36283 11.1471H8.42699C9.11726 11.1471 9.75959 10.9841 10.354 10.6581C10.6224 10.4856 10.9196 10.3993 11.2456 10.3993C11.7441 10.3993 12.1659 10.5718 12.5111 10.917C12.8562 11.2621 13.0288 11.6648 13.0288 12.1249C13.0288 12.796 12.7316 13.2946 12.1372 13.6205C10.9867 14.2724 9.75 14.5984 8.42699 14.5984H7.36283C5.33038 14.5984 3.59513 13.8985 2.15708 12.4988C0.719027 11.0991 0 9.41182 0 7.4369C0 5.46197 0.719027 3.77465 2.15708 2.37495C3.59513 0.975243 5.33038 0.275391 7.36283 0.275391H8.42699C10.4594 0.275391 12.1947 0.975243 13.6327 2.37495C15.0708 3.77465 15.7898 5.46197 15.7898 7.4369C15.7898 7.91625 15.6173 8.32849 15.2721 8.67362C14.927 8.99958 14.5052 9.16256 14.0066 9.16256C13.5273 9.16256 13.115 8.99958 12.7699 8.67362C12.4248 8.32849 12.2522 7.91625 12.2522 7.4369C12.2522 6.42067 11.8783 5.54825 11.1305 4.81964C10.3827 4.09102 9.48156 3.72672 8.42699 3.72672H7.36283ZM24.9934 5.76875C25.5111 5.76875 25.9521 5.95091 26.3164 6.31521C26.6807 6.67952 26.8628 7.12052 26.8628 7.63822C26.8628 8.15592 26.6807 8.59692 26.3164 8.96123C25.9521 9.32554 25.5111 9.50769 24.9934 9.50769H24.1018V15.0873H20.6217V0.275391H24.1018V5.76875H24.9934Z" fill="#FFC814"/>
</svg>
